<svg xmlns="http://www.w3.org/2000/svg" xmlns:xlink="http://www.w3.org/1999/xlink" id="Layer_1" x="0" y="0" version="1.1" viewBox="0 0 18.09 23.1" style="enable-background:new 0 0 229.41 23.1" xml:space="preserve"><style type="text/css">.st1{fill:#002f87}.st2{fill:none;stroke:#002f87;stroke-width:.8237}</style><path d="M9.26,13.7c1.11-0.07,2.01-0.97,2.01-2.1c0-1.13-0.89-2.03-2.01-2.1" class="st2"/><path d="M9.26,9.5c0-0.5,0-5.95,0-6.51c4.65,0.16,8.39,3.97,8.39,8.66c0,4.69-3.74,8.5-8.39,8.66c0-0.56,0-6.09,0-6.6" class="st2"/><path d="M9.23,11.6c0,0.14-0.12,0.26-0.26,0.26v1.55c0.06,0,0.11,0.02,0.17,0.02c1.01,0,1.83-0.82,1.83-1.83	c0-1.01-0.82-1.83-1.83-1.83c-0.06,0-0.12,0.01-0.17,0.02v1.55C9.11,11.33,9.23,11.45,9.23,11.6z" class="st1"/><path d="M0,11.33h7.33h1.63V9.78V2.66C4.11,2.66,0.17,6.52,0,11.33z" class="st1"/><path d="M7.34,11.86H0c0.12,4.86,4.08,8.76,8.97,8.76v-7.21v-1.55H7.34z" class="st1"/><line x1="9.17" x2="9.17" y1="14.82" y2="23.1" class="st2"/><line x1="9.17" x2="9.17" y1="0" y2="13.84" class="st2"/></svg>