<svg xmlns="http://www.w3.org/2000/svg" xmlns:svg="http://www.w3.org/2000/svg" id="svg482" height="29.091" version="1.1" viewBox="0 0 32 32"><metadata id="metadata486"/><defs id="defs444"><linearGradient id="a" x1="11.891" x2="36.398" y1="-.493" y2="24.313" gradientTransform="matrix(1.0093477,0,0,0.99073888,0,-2.5e-4)" gradientUnits="userSpaceOnUse"><stop id="stop268" offset="0%" stop-color="#00B388"/><stop id="stop270" offset="13.16%" stop-color="#00B097"/><stop id="stop272" offset="51.16%" stop-color="#00A9BF"/><stop id="stop274" offset="81.43%" stop-color="#00A5D7"/><stop id="stop276" offset="100%" stop-color="#00A3E0"/></linearGradient><linearGradient id="b" x1="-.368" x2="24.288" y1="11.843" y2="36.499" gradientTransform="matrix(1.0032688,0,0,0.99674183,0,-2.5e-4)" gradientUnits="userSpaceOnUse"><stop id="stop279" offset="0%" stop-color="#00B388"/><stop id="stop281" offset="13.16%" stop-color="#00B097"/><stop id="stop283" offset="51.16%" stop-color="#00A9BF"/><stop id="stop285" offset="81.43%" stop-color="#00A5D7"/><stop id="stop287" offset="100%" stop-color="#00A3E0"/></linearGradient><linearGradient id="c" x1="11.964" x2="36.624" y1="-.495" y2="24.164" gradientTransform="matrix(1.0033337,0,0,0.99667743,0,-2.5e-4)" gradientUnits="userSpaceOnUse"><stop id="stop290" offset="0%" stop-color="#00B388"/><stop id="stop292" offset="13.16%" stop-color="#00B097"/><stop id="stop294" offset="51.16%" stop-color="#00A9BF"/><stop id="stop296" offset="81.43%" stop-color="#00A5D7"/><stop id="stop298" offset="100%" stop-color="#00A3E0"/></linearGradient><linearGradient id="d" x1="-6.226" x2="23.174" y1="13.999" y2="34.679" gradientTransform="matrix(0.84131166,0,0,1.1886202,0,-2.5e-4)" gradientUnits="userSpaceOnUse"><stop id="stop301" offset="0%" stop-color="#00B388"/><stop id="stop303" offset="13.16%" stop-color="#00B097"/><stop id="stop305" offset="51.16%" stop-color="#00A9BF"/><stop id="stop307" offset="81.43%" stop-color="#00A5D7"/><stop id="stop309" offset="100%" stop-color="#00A3E0"/></linearGradient><linearGradient id="e" x1="1.908" x2="31.517" y1="8.23" y2="28.766" gradientTransform="matrix(0.83553511,0,0,1.1968378,0,-2.5e-4)" gradientUnits="userSpaceOnUse"><stop id="stop312" offset="0%" stop-color="#00B388"/><stop id="stop314" offset="13.16%" stop-color="#00B097"/><stop id="stop316" offset="51.16%" stop-color="#00A9BF"/><stop id="stop318" offset="81.43%" stop-color="#00A5D7"/><stop id="stop320" offset="100%" stop-color="#00A3E0"/></linearGradient><linearGradient id="f" x1="5.808" x2="30.465" y1="5.667" y2="30.323" gradientTransform="matrix(1.0032776,0,0,0.99673309,0,-2.5e-4)" gradientUnits="userSpaceOnUse"><stop id="stop323" offset="0%" stop-color="#00B388"/><stop id="stop325" offset="13.16%" stop-color="#00B097"/><stop id="stop327" offset="51.16%" stop-color="#00A9BF"/><stop id="stop329" offset="81.43%" stop-color="#00A5D7"/><stop id="stop331" offset="100%" stop-color="#00A3E0"/></linearGradient><linearGradient id="g" x1="14.02" x2="34.556" y1="-6.439" y2="23.169" gradientTransform="matrix(1.2046448,0,0,0.83012018,0,-2.5e-4)" gradientUnits="userSpaceOnUse"><stop id="stop334" offset="0%" stop-color="#00B388"/><stop id="stop336" offset="13.16%" stop-color="#00B097"/><stop id="stop338" offset="51.16%" stop-color="#00A9BF"/><stop id="stop340" offset="81.43%" stop-color="#00A5D7"/><stop id="stop342" offset="100%" stop-color="#00A3E0"/></linearGradient><linearGradient id="h" x1="20.068" x2="49.472" y1="-4.496" y2="16.186" gradientTransform="matrix(0.84145276,0,0,1.1884208,0,-2.5e-4)" gradientUnits="userSpaceOnUse"><stop id="stop345" offset="0%" stop-color="#00B388"/><stop id="stop347" offset="13.16%" stop-color="#00B097"/><stop id="stop349" offset="51.16%" stop-color="#00A9BF"/><stop id="stop351" offset="81.43%" stop-color="#00A5D7"/><stop id="stop353" offset="100%" stop-color="#00A3E0"/></linearGradient><linearGradient id="i" x1="1.277" x2="21.175" y1="12.258" y2="42.798" gradientTransform="matrix(1.2433333,0,0,0.80428956,0,-2.5e-4)" gradientUnits="userSpaceOnUse"><stop id="stop356" offset="0%" stop-color="#00B388"/><stop id="stop358" offset="13.16%" stop-color="#00B097"/><stop id="stop360" offset="51.16%" stop-color="#00A9BF"/><stop id="stop362" offset="81.43%" stop-color="#00A5D7"/><stop id="stop364" offset="100%" stop-color="#00A3E0"/></linearGradient><linearGradient id="j" x1="5.803" x2="30.46" y1="5.672" y2="30.33" gradientTransform="matrix(1.0032776,0,0,0.99673309,0,-2.5e-4)" gradientUnits="userSpaceOnUse"><stop id="stop367" offset="0%" stop-color="#00B388"/><stop id="stop369" offset="13.16%" stop-color="#00B097"/><stop id="stop371" offset="51.16%" stop-color="#00A9BF"/><stop id="stop373" offset="81.43%" stop-color="#00A5D7"/><stop id="stop375" offset="100%" stop-color="#00A3E0"/></linearGradient><linearGradient id="k" x1="11.916" x2="41.239" y1="1.222" y2="21.957" gradientTransform="matrix(0.84361364,0,0,1.1853767,0,-2.5e-4)" gradientUnits="userSpaceOnUse"><stop id="stop378" offset="0%" stop-color="#00B388"/><stop id="stop380" offset="13.16%" stop-color="#00B097"/><stop id="stop382" offset="51.16%" stop-color="#00A9BF"/><stop id="stop384" offset="81.43%" stop-color="#00A5D7"/><stop id="stop386" offset="100%" stop-color="#00A3E0"/></linearGradient><linearGradient id="l" x1="8.413" x2="29.089" y1="1.728" y2="31.123" gradientTransform="matrix(1.1962541,0,0,0.8359428,0,-2.5e-4)" gradientUnits="userSpaceOnUse"><stop id="stop389" offset="0%" stop-color="#00B388"/><stop id="stop391" offset="13.16%" stop-color="#00B097"/><stop id="stop393" offset="51.16%" stop-color="#00A9BF"/><stop id="stop395" offset="81.43%" stop-color="#00A5D7"/><stop id="stop397" offset="100%" stop-color="#00A3E0"/></linearGradient><linearGradient id="m" x1="-3.382" x2="21.275" y1="14.858" y2="39.515" gradientTransform="matrix(1.0032776,0,0,0.99673309,0,-2.5e-4)" gradientUnits="userSpaceOnUse"><stop id="stop400" offset="0%" stop-color="#00B388"/><stop id="stop402" offset="13.16%" stop-color="#00B097"/><stop id="stop404" offset="51.16%" stop-color="#00A9BF"/><stop id="stop406" offset="81.43%" stop-color="#00A5D7"/><stop id="stop408" offset="100%" stop-color="#00A3E0"/></linearGradient><linearGradient id="n" x1="-4.423" x2="16.454" y1="19.722" y2="48.847" gradientTransform="matrix(1.1849605,0,0,0.84390997,0,-2.5e-4)" gradientUnits="userSpaceOnUse"><stop id="stop411" offset="0%" stop-color="#00B388"/><stop id="stop413" offset="13.16%" stop-color="#00B097"/><stop id="stop415" offset="51.16%" stop-color="#00A9BF"/><stop id="stop417" offset="81.43%" stop-color="#00A5D7"/><stop id="stop419" offset="100%" stop-color="#00A3E0"/></linearGradient><linearGradient id="o" x1="14.993" x2="39.65" y1="-3.52" y2="21.136" gradientTransform="matrix(1.0032776,0,0,0.99673309,0,-2.5e-4)" gradientUnits="userSpaceOnUse"><stop id="stop422" offset="0%" stop-color="#00B388"/><stop id="stop424" offset="13.16%" stop-color="#00B097"/><stop id="stop426" offset="51.16%" stop-color="#00A9BF"/><stop id="stop428" offset="81.43%" stop-color="#00A5D7"/><stop id="stop430" offset="100%" stop-color="#00A3E0"/></linearGradient><linearGradient id="p" x1="-.355" x2="24.15" y1="11.905" y2="36.709" gradientTransform="matrix(1.0093923,0,0,0.99069505,0,-2.5e-4)" gradientUnits="userSpaceOnUse"><stop id="stop433" offset="0%" stop-color="#00B388"/><stop id="stop435" offset="13.16%" stop-color="#00B097"/><stop id="stop437" offset="51.16%" stop-color="#00A9BF"/><stop id="stop439" offset="81.43%" stop-color="#00A5D7"/><stop id="stop441" offset="100%" stop-color="#00A3E0"/></linearGradient></defs><g id="g559" transform="scale(0.87972509,0.89232185)"><path id="path446" d="m 18.745,11.14575 c -0.28,0.277 -0.836,0.277 -1.115,0 l -5.017,-4.986 c -0.28,-0.276 -0.28,-0.83 0,-1.107 l 5.017,-4.845 c 0.28,-0.277 0.836,-0.277 1.115,0 l 5.017,4.985 c 0.277,0.276 0.277,0.83 0,1.107 l -5.018,4.845 h 0.001 z" style="fill:url(#a)"/><path id="path448" d="m 18.745,35.65375 c -0.28,0.277 -0.836,0.277 -1.115,0 l -5.017,-4.985 c -0.28,-0.276 -0.28,-0.83 0,-1.107 l 5.017,-4.984 c 0.28,-0.277 0.836,-0.277 1.115,0 l 5.017,4.985 c 0.277,0.278 0.277,0.832 0,1.108 l -5.018,4.985 z" style="fill:url(#b)"/><path id="path450" d="m 31.148,23.32975 c -0.28,0.278 -0.836,0.278 -1.115,0 l -5.017,-4.984 c -0.28,-0.277 -0.28,-0.83 0,-1.107 l 5.017,-4.985 c 0.28,-0.277 0.836,-0.277 1.115,0 l 5.017,4.985 c 0.28,0.277 0.28,0.83 0,1.107 l -5.017,4.985 z" style="fill:url(#c)"/><path id="path452" d="m 11.916,31.08475 c 0,-0.416 -0.28,-0.554 -0.557,-0.277 l -2.09,2.215 c -0.28,0.277 -0.28,0.693 0.14,0.97 l 1.95,0.83 c 0.418,0.14 0.696,0 0.696,-0.415 v -3.323 h -0.14 z" style="fill:url(#d)"/><path id="path454" d="m 26.967,33.99275 c 0.418,-0.14 0.418,-0.554 0.14,-0.97 l -2.23,-2.215 c -0.28,-0.277 -0.558,-0.14 -0.558,0.277 v 3.323 c 0,0.415 0.28,0.692 0.697,0.415 l 1.95,-0.83 z" style="fill:url(#e)"/><path id="path456" d="m 30.451,24.85375 c 0,-0.415 -0.418,-0.83 -0.836,-0.83 h -4.46 c -0.418,0 -0.836,0.415 -0.836,0.83 v 4.43 c 0,0.416 0.418,0.832 0.836,0.832 h 4.46 c 0.418,0 0.836,-0.416 0.836,-0.83 z" style="fill:url(#f)"/><path id="path458" d="m 34.353,9.20775 c -0.14,-0.415 -0.557,-0.415 -0.975,-0.14 l -2.23,2.217 c -0.28,0.277 -0.14,0.554 0.28,0.554 h 3.343 c 0.418,0 0.697,-0.277 0.418,-0.693 z" style="fill:url(#g)"/><path id="path460" d="m 27.106,2.83875 c 0.28,-0.416 0.28,-0.83 -0.14,-0.97 l -1.95,-0.83 c -0.418,-0.14 -0.697,0 -0.697,0.415 v 3.323 c 0,0.416 0.28,0.554 0.558,0.277 l 2.23,-2.215 z" style="fill:url(#h)"/><path id="path462" d="m 2.997,9.06875 c -0.418,-0.276 -0.836,-0.276 -0.976,0.14 l -0.975,1.8 c -0.14,0.414 0.14,0.69 0.557,0.69 h 3.345 c 0.418,0 0.558,-0.276 0.28,-0.553 l -2.23,-2.077 z" style="fill:url(#i)"/><path id="path464" d="m 11.916,6.57675 c 0,-0.415 -0.418,-0.83 -0.836,-0.83 H 6.76 c -0.418,0 -0.836,0.415 -0.836,0.83 v 4.43 c 0,0.416 0.42,0.832 0.837,0.832 h 4.46 c 0.417,0 0.835,-0.416 0.835,-0.83 v -4.433 h -0.14 z" style="fill:url(#j)"/><path id="path466" d="m 11.916,1.45375 c 0,-0.415 -0.28,-0.692 -0.697,-0.415 l -1.81,0.83 c -0.42,0.14 -0.56,0.554 -0.14,0.97 l 2.23,2.215 c 0.278,0.277 0.556,0.14 0.556,-0.277 v -3.323 h -0.14 z" style="fill:url(#k)"/><path id="path468" d="m 35.189,24.85375 c 0.14,-0.415 0,-0.692 -0.418,-0.692 h -3.344 c -0.418,0 -0.558,0.278 -0.28,0.555 l 2.231,2.214 c 0.28,0.277 0.697,0.277 0.976,-0.138 l 0.836,-1.94 h -10e-4 z" style="fill:url(#l)"/><path id="path470" d="m 11.916,24.85375 c 0,-0.415 -0.418,-0.83 -0.836,-0.83 H 6.76 c -0.418,0 -0.836,0.415 -0.836,0.83 v 4.43 c 0,0.416 0.42,0.832 0.837,0.832 h 4.46 c 0.417,0 0.835,-0.416 0.835,-0.83 v -4.432 z" style="fill:url(#m)"/><path id="path472" d="m 5.087,24.57675 c 0.28,-0.277 0.14,-0.554 -0.278,-0.554 H 1.603 c -0.418,0 -0.696,0.277 -0.418,0.693 l 0.836,1.938 c 0.14,0.415 0.558,0.415 0.976,0.14 z" style="fill:url(#n)"/><path id="path474" d="m 30.451,11.00775 c 0,0.415 -0.418,0.83 -0.836,0.83 h -4.46 c -0.418,0 -0.836,-0.415 -0.836,-0.83 v -4.43 c 0,-0.416 0.418,-0.832 0.836,-0.832 h 4.46 c 0.418,0 0.836,0.416 0.836,0.83 z" style="fill:url(#o)"/><path id="path476" d="m 6.343,23.32975 c -0.28,0.278 -0.837,0.278 -1.116,0 l -5.017,-4.983 c -0.28,-0.277 -0.28,-0.83 0,-1.107 l 5.017,-4.846 c 0.28,-0.277 0.836,-0.277 1.115,0 l 5.016,4.984 c 0.278,0.277 0.278,0.83 0,1.108 z" style="fill:url(#p)"/></g></svg>