<svg xmlns="http://www.w3.org/2000/svg" viewBox="0 0 61.184 60.719"><text x="-420.657" y="167.216" style="-inkscape-font-specification:SourceSansPro-Regular" fill="#fff" stroke-width="1.333" font-family="Source Sans Pro" font-size="12" font-weight="400"><tspan x="-420.657 -414.249 -407.397 -399.573 -393.741 -387.417 -384.261 -378.333 -372.009 -364.245 -357.189 -350.841 -343.101 -336.777 -329.949 -327.549 -320.757 -313.929 -305.961 -298.581 -290.841 -284.205 -278.229 -271.821 -269.421 -262.437 -256.257" y="167.216">SCHLEIFENBAUER PRODUCTS BV</tspan></text><text x="-253.871" y="167.216" style="-inkscape-font-specification:HelveticaNeue-Light" fill="#fff" stroke-width="1.333" font-family="GSGEOZ +HelveticaNeue-Light" font-size="9.333" font-weight="300"><tspan x="-253.871 -249.204" y="167.216">•</tspan></text><text x="-246.609" y="167.216" style="-inkscape-font-specification:SourceSansPro-Regular" fill="#fff" stroke-width="1.333" font-family="Source Sans Pro" font-size="12" font-weight="400"><tspan x="-246.609 -237.993 -229.377 -221.241 -218.253 -213.225 -207.753 -201.225 -198.165 -192.213 -189.261 -185.877 -179.925 -173.361 -166.893 -160.845 -154.317 -148.365 -144.873 -142.017 -136.065 -129.537" y="167.216">www.schleifenbauer.eu</tspan></text><text x="-127.164" y="167.216" style="-inkscape-font-specification:HelveticaNeue-Light" fill="#fff" stroke-width="1.333" font-family="GSGEOZ +HelveticaNeue-Light" font-size="9.333" font-weight="300"><tspan x="-127.164 -122.497" y="167.216">•</tspan></text><text x="-119.902" y="167.216" style="-inkscape-font-specification:SourceSansPro-Regular" fill="#fff" stroke-width="1.333" font-family="Source Sans Pro" font-size="12" font-weight="400"><tspan x="-119.902 -116.95 -110.386 -106.99 -100.486 -90.322 -85.294 -79.822 -73.294 -70.234 -64.282 -61.33 -57.934 -51.982 -45.418 -38.95 -32.902 -26.374 -20.422 -16.942 -14.074 -8.122 -1.594" y="167.216">info@schleifenbauer.eu</tspan></text><path fill="#4cb7dd" d="M20.899 59.172c9.805-4.634 14.548-12.628 17.774-21.883 1.355-3.884 3.03-7.659 4.58-11.475 1.415-3.481 4.152-4.961 7.78-5.162 3.082-.172 4.368-1.404 4.303-3.94-.064-2.442-1.493-3.48-4.644-3.564C44.593 12.982 40 15.685 37.31 20.96c-2.553 5.01-4.316 10.417-6.694 15.524-1.692 3.63-3.51 7.287-5.854 10.508-2.869 3.945-7.108 6.05-12.068 5.98-1.413-.02-3.213-.724-4.154-1.743C.695 42.744-1.928 32.78 1.433 21.68 4.865 10.348 12.724 3.406 24.223.744c5.033-1.166 10.11-.976 15.37.674-.36.402-.522.718-.78.85-7.62 3.918-12.116 10.429-15.133 18.176-1.723 4.424-3.472 8.838-5.177 13.268-1.582 4.106-4.396 6.364-8.94 6.409-2.5.025-3.81 1.564-3.682 3.964.13 2.401 1.48 3.417 3.85 3.521 6.134.266 11.014-2.056 13.837-7.474 2.513-4.824 4.239-10.051 6.541-14.995 1.77-3.797 3.56-7.665 5.944-11.079 2.98-4.258 7.46-6.41 12.73-6.313 1.262.023 2.857.66 3.706 1.57 8.06 8.61 10.664 18.745 7.192 30.015-3.418 11.096-11.194 17.958-22.45 20.623-5.19 1.23-10.48.988-16.332-.781"/></svg>