<svg xmlns="http://www.w3.org/2000/svg" xmlns:svg="http://www.w3.org/2000/svg" id="svg209" height="100%" style="clip-rule:evenodd;fill-rule:evenodd;stroke-linejoin:round;stroke-miterlimit:1.41420996" version="1.1" viewBox="0 0 212.216 201" xml:space="preserve"><metadata id="metadata215"/><g id="Layer-1" transform="translate(-17.951083,-8.0001)"><g id="g138" transform="translate(124.059,8.0001)"><path id="path136" style="fill:#222;fill-rule:nonzero" d="M 0,99.925 40.493,57.931 94.172,57.23 C 76.49,23.234 40.969,0 0,0 -40.973,0 -76.496,23.238 -94.177,57.239 l 51.911,0.692 z"/></g><g id="g142" transform="matrix(-0.952181,0.305535,0.305535,0.952181,131.466,192.478)"><path id="path140" style="fill:#222;fill-rule:nonzero" d="m 58.215,-151.825 c 11.538,11.545 20.597,25.91 25.927,42.52 12.549,39.109 1.19,80.138 -25.927,107.361 l -60.27,-31.123 z"/></g><g id="g146" transform="translate(230.167,160.142)"><path id="path144" style="fill:#222;fill-rule:nonzero" d="m 0,-46.034 c 0,-17.625 -4.322,-34.231 -11.926,-48.858 l -94.921,95.114 48.212,48.636 C -23.875,31.432 0,-4.503 0,-46.034"/></g></g></svg>