<svg xmlns="http://www.w3.org/2000/svg" xmlns:svg="http://www.w3.org/2000/svg" xmlns:xlink="http://www.w3.org/1999/xlink" id="svg5" version="1.1" viewBox="0 0 52.917 15.875"><defs id="defs2"><linearGradient id="linearGradient26446"><stop style="stop-color:#fff;stop-opacity:1" id="stop26442" offset="0"/><stop style="stop-color:#fff;stop-opacity:0" id="stop26444" offset="1"/></linearGradient><linearGradient id="linearGradient26448" x1="2.615" x2="28.426" y1="11.523" y2="11.523" gradientUnits="userSpaceOnUse" xlink:href="#linearGradient26446"/></defs><g id="layer1"><g id="text1058" aria-label="λ" transform="matrix(0.11982429,0,0,0.0739929,-46.28129,33.4911)" style="font-size:198.359px;letter-spacing:0;word-spacing:0;fill:#e50182;stroke-width:1.48769"><path id="path12743" d="M 95.895737,67.465215 145.96976,201.22194 H 127.08304 L 96.670577,121.02602 59.284555,201.22194 H 40.397835 L 87.953629,97.199693 80.78636,78.022408 Q 76.234176,65.818681 65.870694,65.818681 H 56.572616 V 50.515594 l 11.332032,0.19371 q 21.889225,0.290565 27.991089,16.755911 z"/></g><g id="text1058-3" aria-label="λ" transform="matrix(0.11982429,0,0,0.0739929,-35.380684,12.164081)" style="font-size:198.359px;letter-spacing:0;word-spacing:0;fill:#e50182;stroke-width:1.48769"><path id="path12743-6" d="M 95.895737,67.465215 145.96976,201.22194 H 127.08304 L 96.670577,121.02602 59.284555,201.22194 H 40.397835 L 87.953629,97.199693 80.78636,78.022408 Q 76.234176,65.818681 65.870694,65.818681 H 56.572616 V 50.515594 l 11.332032,0.19371 q 21.889225,0.290565 27.991089,16.755911 z" style="fill:#fff;fill-opacity:1"/></g><text xml:space="preserve" style="font-style:normal;font-weight:400;font-size:9.1404px;line-height:1.25;font-family:sans-serif;letter-spacing:2px;word-spacing:0;fill:#e50182;fill-opacity:1;stroke:none;stroke-width:.22851" id="text15916" x="3.103" y="7.601"><tspan id="tspan15918" x="3.103" y="7.601" style="fill:#e50182;fill-opacity:1;stroke-width:.22851">LλMBDA</tspan></text><text xml:space="preserve" style="font-style:normal;font-weight:400;font-size:9.1404px;line-height:1.25;font-family:sans-serif;letter-spacing:1.5px;word-spacing:0;fill:#fff;fill-opacity:1;stroke:#e50182;stroke-width:.18897638;stroke-miterlimit:4;stroke-dasharray:none;stroke-opacity:1" id="text15916-7" x="4.046" y="15.367"><tspan id="tspan15918-5" x="4.046" y="15.367" style="fill:#fff;fill-opacity:1;stroke:#e50182;stroke-width:.18897638;stroke-miterlimit:4;stroke-dasharray:none;stroke-opacity:1">TRAIL</tspan></text></g></svg>